<svg xmlns="http://www.w3.org/2000/svg" style="display:none;">
  <symbol id="dashboard" viewBox="0 0 24 24">
    <path d="M3 13h8V3H3v10Zm10 8h8V11h-8v10ZM3 21h8v-6H3v6Zm10-18v6h8V3h-8Z" />
  </symbol>
  <symbol id="articles" viewBox="0 0 24 24">
    <path d="M5 4h14a2 2 0 0 1 2 2v12a2 2 0 0 1-2 2H7a4 4 0 0 1-4-4V6a2 2 0 0 1 2-2Zm0 2v10a2 2 0 0 0 2 2h12V6H5Zm3 3h8v2H8V9Zm0 4h8v2H8v-2Z" />
  </symbol>
  <symbol id="scenarios" viewBox="0 0 24 24">
    <path d="M4 19h16v2H4v-2Zm2-3.5 4.5-4.5 3 3L19 8.5 20.5 10 13.5 17l-3-3L7.5 17 6 15.5Z" />
  </symbol>
  <symbol id="reports" viewBox="0 0 24 24">
    <path d="M6 2h9l5 5v15a2 2 0 0 1-2 2H6a2 2 0 0 1-2-2V4a2 2 0 0 1 2-2Zm8 1.5V8h4.5L14 3.5ZM8 12h8v2H8v-2Zm0 4h8v2H8v-2Zm0-8h4v2H8V8Z" />
  </symbol>
  <symbol id="settings" viewBox="0 0 24 24">
    <path d="m19.14 12.94.04-.94-.04-.94 2.03-1.58a.5.5 0 0 0 .12-.64l-1.92-3.32a.5.5 0 0 0-.6-.22l-2.39.96a7.6 7.6 0 0 0-1.63-.94l-.36-2.54A.5.5 0 0 0 13.9 2h-3.8a.5.5 0 0 0-.49.42l-.36 2.54c-.57.23-1.12.55-1.63.94l-2.39-.96a.5.5 0 0 0-.6.22L2.7 8.48a.5.5 0 0 0 .12.64l2.03 1.58-.04.94.04.94-2.03 1.58a.5.5 0 0 0-.12.64l1.92 3.32a.5.5 0 0 0 .6.22l2.39-.96c.5.39 1.05.71 1.63.94l.36 2.54a.5.5 0 0 0 .49.42h3.8a.5.5 0 0 0 .49-.42l.36-2.54c.57-.23 1.12-.55 1.63-.94l2.39.96a.5.5 0 0 0 .6-.22l1.92-3.32a.5.5 0 0 0-.12-.64l-2.03-1.58ZM12 15.5A3.5 3.5 0 1 1 12 8a3.5 3.5 0 0 1 0 7.5Z" />
  </symbol>
</svg>
